<svg xmlns="http://www.w3.org/2000/svg" version="1.1" xmlns:xlink="http://www.w3.org/1999/xlink" xmlns:svgjs="http://svgjs.com/svgjs" width="512" height="512" x="0" y="0" viewBox="0 0 56 56" style="enable-background:new 0 0 512 512" xml:space="preserve" class=""><g><g xmlns="http://www.w3.org/2000/svg" id="Page-1" fill="none" fill-rule="evenodd"><g id="010---Secure-Password" fill="rgb(0,0,0)" fill-rule="nonzero"><path id="Shape" d="m48 25c0-1.6568542-1.3431458-3-3-3h-34c-1.65685425 0-3 1.3431458-3 3v6h40zm-34 1h-2v2c0 .5522847-.4477153 1-1 1s-1-.4477153-1-1v-3c0-.5522847.4477153-1 1-1h3c.5522847 0 1 .4477153 1 1s-.4477153 1-1 1z" fill="#000000" data-original="#000000" class=""></path><path id="Shape" d="m8 53c0 1.6568542 1.34314575 3 3 3h34c1.6568542 0 3-1.3431458 3-3v-6h-40z" fill="#000000" data-original="#000000" class=""></path><path id="Shape" d="m55 33h-54c-.55228475 0-1 .4477153-1 1v10c0 .5522847.44771525 1 1 1h54c.5522847 0 1-.4477153 1-1v-10c0-.5522847-.4477153-1-1-1zm-45.445 7.168c.4595009.306518.583518.9274991.27699996 1.387-.30651803.4595009-.92749905.583518-1.38699996.277l-1.445-.964v1.132c0 .5522847-.44771525 1-1 1s-1-.4477153-1-1v-1.132l-1.445.964c-.45950091.306518-1.08048193.1825009-1.38699996-.277s-.18250092-1.080482.27699996-1.387l1.755-1.168-1.755-1.168c-.45950088-.306518-.58351799-.9274991-.27699996-1.387s.92749905-.583518 1.38699996-.277l1.445.964v-1.132c0-.5522847.44771525-1 1-1s1 .4477153 1 1v1.132l1.445-.964c.29724497-.1982824.67769307-.2229246.99803316-.0646441.3203401.1582805.53190491.4754371.55500002.832.02309512.3565629-.14578819.6983617-.44303318.8966441l-1.755 1.168zm11 0c.4595009.306518.583518.9274991.277 1.387-.3065181.4595009-.9274991.583518-1.387.277l-1.445-.964v1.132c0 .5522847-.4477153 1-1 1s-1-.4477153-1-1v-1.132l-1.445.964c-.4595009.306518-1.0804819.1825009-1.387-.277-.306518-.4595009-.1825009-1.080482.277-1.387l1.755-1.168-1.752-1.168c-.4595009-.306518-.583518-.9274991-.277-1.387.3065181-.4595009.9274991-.583518 1.387-.277l1.442.964v-1.132c0-.5522847.4477153-1 1-1s1 .4477153 1 1v1.132l1.445-.964c.297245-.1982824.6776931-.2229246.9980332-.0646441s.5319049.4754371.555.832-.1457882.6983617-.4430332.8966441l-1.755 1.168zm11 0c.4595009.3065181.583518.9274991.2769999 1.387-.306518.4595009-.927499.583518-1.3869999.277l-1.445-.964v1.132c0 .5522847-.4477153 1-1 1s-1-.4477153-1-1v-1.132l-1.445.964c-.4595009.306518-1.0804819.1825009-1.387-.277-.306518-.4595009-.1825009-1.080482.277-1.387l1.755-1.168-1.752-1.168c-.4595009-.3065181-.583518-.9274991-.2769999-1.387.306518-.4595009.927499-.583518 1.3869999-.277l1.442.964v-1.132c0-.5522847.4477153-1 1-1s1 .4477153 1 1v1.132l1.445-.964c.297245-.1982824.6776931-.2229246.9980332-.0646441.3203401.1582804.5319049.4754371.555.832s-.1457882.6983617-.4430332.8966441l-1.755 1.168zm11 0c.4595009.306518.583518.9274991.277 1.387-.3065181.4595009-.9274991.583518-1.387.277l-1.445-.964v1.132c0 .5522847-.4477153 1-1 1s-1-.4477153-1-1v-1.132l-1.445.964c-.4595009.306518-1.0804819.1825009-1.3869999-.277-.3065181-.4595009-.182501-1.0804819.2769999-1.387l1.755-1.168-1.752-1.168c-.4595009-.306518-.583518-.9274991-.277-1.387.3065181-.4595009.9274991-.583518 1.387-.277l1.442.964v-1.132c0-.5522847.4477153-1 1-1s1 .4477153 1 1v1.132l1.445-.964c.297245-.1982824.6776931-.2229246.9980332-.0646441.32034.1582805.5319049.4754371.555.832s-.1457882.6983617-.4430332.8966441l-1.755 1.168zm10.445 2.832h-6c-.5522847 0-1-.4477153-1-1s.4477153-1 1-1h6c.5522847 0 1 .4477153 1 1s-.4477153 1-1 1z" fill="#000000" data-original="#000000" class=""></path><path id="Shape" d="m17 15c0-6.07513225 4.9248678-11 11-11s11 4.92486775 11 11v5h4v-5c0-8.28427125-6.7157288-15-15-15s-15 6.71572875-15 15v5h4z" fill="#000000" data-original="#000000" class=""></path></g></g></g></svg>