<svg xmlns="http://www.w3.org/2000/svg" version="1.1" xmlns:xlink="http://www.w3.org/1999/xlink" xmlns:svgjs="http://svgjs.com/svgjs" width="512" height="512" x="0" y="0" viewBox="0 0 24 24" style="enable-background:new 0 0 512 512" xml:space="preserve" class=""><g><path xmlns="http://www.w3.org/2000/svg" d="m12 1a11 11 0 1 0 11 11 10.994 10.994 0 0 0 -11-11zm-1 5a1 1 0 0 1 2 0v4a1 1 0 0 1 -2 0zm5.95 10.95a7 7 0 0 1 -9.9-9.9 1 1 0 0 1 1.41 0 .978.978 0 0 1 0 1.41 5 5 0 1 0 7.08 0 .978.978 0 0 1 0-1.41 1 1 0 0 1 1.41 0 7 7 0 0 1 0 9.9z" fill="#000000" data-original="#000000" class=""></path></g></svg>