<svg xmlns="http://www.w3.org/2000/svg" version="1.1" xmlns:xlink="http://www.w3.org/1999/xlink" xmlns:svgjs="http://svgjs.com/svgjs" width="512" height="512" x="0" y="0" viewBox="0 0 24 24" style="enable-background:new 0 0 512 512" xml:space="preserve" class=""><g><path xmlns="http://www.w3.org/2000/svg" clip-rule="evenodd" d="m3.42013 5h11.52107c.3249 0 .5882.26336.5882.58824v1.17647h3.3519c.3677 0 .6909.24374.7919.59728l1.0083 3.52921c.1183.0208.2283.0774.3143.1634l.8319.8319c.1103.1103.1723.26.1723.416v3.874c0 .3248-.2634.5882-.5882.5882h-1.7647c0 1.2995-1.0535 2.3529-2.353 2.3529s-2.3529-1.0534-2.3529-2.3529h-5.88238c0 1.2995-1.05344 2.3529-2.35294 2.3529-1.29949 0-2.35294-1.0534-2.35294-2.3529h-1.7647c-.32488 0-.58824-.2634-.58824-.5882v-9.75637c0-.15601.06197-.30563.17229-.41595l.83189-.83189c.11032-.11032.25994-.17229.41595-.17229zm16.03537 5.8824-.8404-2.94122h-3.0857v2.35292c0 .3249.2634.5883.5882.5883zm-2.1614 4.7058c.6498 0 1.1765.5268 1.1765 1.1765 0 .6498-.5267 1.1765-1.1765 1.1765-.6497 0-1.1765-.5267-1.1765-1.1765 0-.6497.5268-1.1765 1.1765-1.1765zm-11.76469 1.1765c0 .6498.52673 1.1765 1.17647 1.1765.64975 0 1.17647-.5267 1.17647-1.1765 0-.6497-.52672-1.1765-1.17647-1.1765-.64974 0-1.17647.5268-1.17647 1.1765z" fill="#000000" fill-rule="evenodd" data-original="#000000" class=""></path></g></svg>