<?xml version="1.0" standalone="no"?>
<!DOCTYPE svg PUBLIC "-//W3C//DTD SVG 20010904//EN"
 "http://www.w3.org/TR/2001/REC-SVG-20010904/DTD/svg10.dtd">
<svg version="1.0" xmlns="http://www.w3.org/2000/svg"
 width="64.000000pt" height="64.000000pt" viewBox="0 0 64.000000 64.000000"
 preserveAspectRatio="xMidYMid meet">

<g transform="translate(0.000000,64.000000) scale(0.100000,-0.100000)"
fill="#000000" stroke="none">
<path d="M25 615 l-25 -24 0 -231 0 -231 25 -24 c23 -24 30 -25 145 -25 l121
0 -16 30 c-9 17 -19 60 -22 95 l-6 64 -81 3 c-73 3 -81 5 -81 23 0 18 8 20 80
23 61 2 83 7 93 19 6 9 12 20 12 25 0 4 -38 8 -84 8 -62 0 -87 4 -96 15 -10
12 -10 18 0 30 10 12 38 15 132 15 66 0 127 -4 137 -10 12 -6 31 -5 54 2 l37
11 0 82 c0 72 -3 84 -23 103 -22 21 -32 22 -201 22 -175 0 -177 0 -201 -25z
m210 -110 c0 -18 -8 -20 -69 -23 -72 -3 -93 5 -82 33 5 13 19 15 78 13 65 -3
73 -5 73 -23z"/>
<path d="M390 360 l-75 -28 -3 -86 c-2 -69 1 -93 17 -124 21 -42 64 -83 113
-108 39 -20 74 -7 133 53 53 53 67 96 63 195 l-3 71 -67 23 c-36 12 -75 24
-85 27 -10 3 -52 -7 -93 -23z m178 -102 c4 -20 -83 -138 -101 -138 -18 0 -77
62 -77 81 0 26 26 30 53 9 l24 -19 33 45 c33 46 62 55 68 22z"/>
</g>
</svg>
