<?xml version="1.0" standalone="no"?>
<!DOCTYPE svg PUBLIC "-//W3C//DTD SVG 20010904//EN"
 "http://www.w3.org/TR/2001/REC-SVG-20010904/DTD/svg10.dtd">
<svg version="1.0" xmlns="http://www.w3.org/2000/svg"
 width="64.000000pt" height="64.000000pt" viewBox="0 0 64.000000 64.000000"
 preserveAspectRatio="xMidYMid meet">

<g transform="translate(0.000000,64.000000) scale(0.100000,-0.100000)"
fill="#000000" stroke="none">
<path d="M235 621 c-57 -26 -103 -77 -120 -135 -17 -56 -13 -96 17 -166 24
-57 171 -310 180 -310 8 0 157 239 191 307 34 68 40 110 22 169 -36 121 -177
187 -290 135z m151 -87 c51 -34 68 -107 40 -163 -21 -40 -59 -61 -110 -61 -39
0 -51 5 -81 35 -31 31 -35 42 -35 85 0 43 4 54 35 85 30 30 42 35 81 35 25 0
56 -7 70 -16z"/>
</g>
</svg>
