<svg xmlns="http://www.w3.org/2000/svg" version="1.1" xmlns:xlink="http://www.w3.org/1999/xlink" xmlns:svgjs="http://svgjs.com/svgjs" width="512" height="512" x="0" y="0" viewBox="0 0 512 512" style="enable-background:new 0 0 512 512" xml:space="preserve" class=""><g>
<g xmlns="http://www.w3.org/2000/svg">
	<g>
		<path d="M467,301h45v-45c0-2.271-0.584-4.369-1.485-6.297c-0.06-0.13-0.033-0.284-0.097-0.412L467,162.455    C454.197,136.879,428.504,121,399.925,121H332v270c0,33.091,26.909,60,60,60s60-26.909,60-60h15c24.814,0,45-20.186,45-45v-15h-45    c-8.291,0-15-6.709-15-15C452,307.709,458.709,301,467,301z M392,421c-16.538,0-30-13.462-30-30c0-16.538,13.462-30,30-30    c16.538,0,30,13.462,30,30C422,407.538,408.538,421,392,421z M392,241v-90h7.925c17.139,0,32.563,9.536,40.239,24.873L472.728,241    H392z" fill="#000000" data-original="#000000" class=""></path>
	</g>
</g>
<g xmlns="http://www.w3.org/2000/svg">
	<g>
		<path d="M0,301v45c0,24.814,20.186,45,45,45h15c0,33.091,26.909,60,60,60s60-26.909,60-60h107c8.291,0,15-6.709,15-15v-75H0z     M120,421c-16.538,0-30-13.462-30-30c0-16.538,13.462-30,30-30s30,13.462,30,30C150,407.538,136.538,421,120,421z" fill="#000000" data-original="#000000" class=""></path>
	</g>
</g>
<g xmlns="http://www.w3.org/2000/svg">
	<g>
		<path d="M257,61H45C20.186,61,0,81.186,0,106v165h302V106C302,81.186,281.814,61,257,61z M257,211H45c-8.291,0-15-6.709-15-15    s6.709-15,15-15h212c8.291,0,15,6.709,15,15S265.291,211,257,211z M257,151H45c-8.291,0-15-6.709-15-15s6.709-15,15-15h212    c8.291,0,15,6.709,15,15S265.291,151,257,151z" fill="#000000" data-original="#000000" class=""></path>
	</g>
</g>
<g xmlns="http://www.w3.org/2000/svg">
</g>
<g xmlns="http://www.w3.org/2000/svg">
</g>
<g xmlns="http://www.w3.org/2000/svg">
</g>
<g xmlns="http://www.w3.org/2000/svg">
</g>
<g xmlns="http://www.w3.org/2000/svg">
</g>
<g xmlns="http://www.w3.org/2000/svg">
</g>
<g xmlns="http://www.w3.org/2000/svg">
</g>
<g xmlns="http://www.w3.org/2000/svg">
</g>
<g xmlns="http://www.w3.org/2000/svg">
</g>
<g xmlns="http://www.w3.org/2000/svg">
</g>
<g xmlns="http://www.w3.org/2000/svg">
</g>
<g xmlns="http://www.w3.org/2000/svg">
</g>
<g xmlns="http://www.w3.org/2000/svg">
</g>
<g xmlns="http://www.w3.org/2000/svg">
</g>
<g xmlns="http://www.w3.org/2000/svg">
</g>
</g></svg>