<svg xmlns="http://www.w3.org/2000/svg" version="1.1" xmlns:xlink="http://www.w3.org/1999/xlink" xmlns:svgjs="http://svgjs.com/svgjs" width="512" height="512" x="0" y="0" viewBox="0 0 56 56" style="enable-background:new 0 0 512 512" xml:space="preserve" class=""><g><g xmlns="http://www.w3.org/2000/svg" id="Page-1" fill="none" fill-rule="evenodd"><g id="017---Self-Star-Rating" fill="rgb(0,0,0)" fill-rule="nonzero" transform="translate(0 -1)"><circle id="Oval" cx="28" cy="14" r="7" fill="#000000" data-original="#000000" class=""></circle><path id="Shape" d="m18 38.76-3.509 3.382c-.2384824.2301196-.3474675.5634417-.291.89l.83 4.818c.0348142.1893653-.0421968.3818968-.1980022.4950158s-.3627207.1267257-.5319978.0349842l-4.36-2.28c-.28913746-.1466373-.63086254-.1466373-.92 0l-4.36 2.28c-.16927705.0917415-.37619235.0781348-.53199776-.0349842-.1558054-.113119-.23281643-.3056505-.19800224-.4950158l.84-4.81c.05135088-.3278577-.06065133-.6601309-.3-.89l-3.51-3.39c-.13385243-.1326699-.18173481-.3293328-.12385187-.5086854.05788293-.1793526.21169645-.3109216.39785187-.3403146l4.866-.7c.32396612-.0447741.60478345-.2469626.75-.54l2.18-4.37c.08354322-.1724952.25833871-.2820551.45-.2820551s.36645678.1095599.45.2820551l2.18 4.37c.1452165.2930374.4260339.4952259.75.54l4.866.7c.1861554.029393.3399689.160962.3978519.3403146.0578829.1793526.0100005.3760155-.1238519.5086854z" fill="#000000" data-original="#000000" class=""></path><path id="Shape" d="m12 17c-.0002403 3.9082018 1.4349627 7.6803693 4.033 10.6.2629473-3.2984206 2.2192104-6.2239179 5.167-7.727-3.1440304-3.6312099-2.8825336-9.0914069.5941194-12.40554269 3.4766531-3.3141358 8.9431081-3.3141358 12.4197612 0 3.476653 3.31413579 3.7381498 8.77433279.5941194 12.40554269 2.9448166 1.5051951 4.8980933 4.4301891 5.16 7.727 4.7214923-5.3300419 5.3510824-13.139377 1.5444377-19.15695895-3.8066447-6.01758194-11.132787-8.7942234-17.9716461-6.81133613-6.8388592 1.98288726-11.5434633 8.2477734-11.5407916 15.36829508z" fill="#000000" data-original="#000000" class=""></path><path id="Shape" d="m28 33c3.6376761.0011216 7.1663097-1.242016 10-3.523v-1.087c.0040793-3.1194741-1.9167043-5.9181142-4.829-7.036-3.0979901 2.1948144-7.2440099 2.1948144-10.342 0-2.9122957 1.1178858-4.8330793 3.9165259-4.829 7.036v1.083c2.8337503 2.2813519 6.3620465 3.525782 10 3.527z" fill="#000000" data-original="#000000" class=""></path><path id="Shape" d="m39.277 43.753c.1363752-.1328211.1854954-.33156.1266988-.5126197-.0587966-.1810596-.2153077-.3130226-.4036988-.3403803l-6.765-.972c-.3251051-.0466734-.6065654-.2500126-.753-.544l-3.029-6.084c-.0845817-.1697073-.257883-.2769669-.4475-.2769669s-.3629183.1072596-.4475.2769669l-3.043 6.088c-.1467374.2929524-.4276776.4954386-.752.542l-6.75.971c-.1890878.0270975-.3462135.1595617-.4048943.3413446-.0586808.181783-.0086613.3811152.1288943.5136554l4.878 4.7c.2384824.2301196.3474675.5634417.291.89l-1.154 6.654c-.0328304.1873514.0434829.3771045.1968863.4895579.1534035.1124534.3573256.1281288.5261137.0404421l6.072-3.156c.2889982-.1501332.6330018-.1501332.922 0l6.071 3.156c.1687881.0876867.3727102.0720113.5261137-.0404421.1534034-.1124534.2297167-.3022065.1968863-.4895579l-1.154-6.662c-.0564675-.3265583.0525176-.6598804.291-.89zm-10.377-2.187-1.74 3.479c-.1467374.2929524-.4276776.4954386-.752.542l-3.761.541c-.0476794.0070678-.0958003.0107437-.144.011-.5250262.0004913-.9610303-.4051289-.9983995-.9288238-.0373692-.5236948.3366231-.9871137.8563995-1.0611762l3.245-.467 1.5-3.011c.1607695-.3197527.4799127-.5294469.8372114-.5500927.3572988-.0206459.6984708.1508931.895.45.1965292.2991068.2185581.68034.0577886 1.0000927z" fill="#000000" data-original="#000000" class=""></path><path id="Shape" d="m37.96 38.761 3.509 3.382c.2384824.2301196.3474675.5634417.291.89l-.83 4.818c-.0348142.1893653.0421968.3818968.1980022.4950158s.3627207.1267257.5319978.0349842l4.36-2.28c.2891375-.1466373.6308625-.1466373.92 0l4.36 2.28c.1692771.0917415.3761924.0781348.5319978-.0349842s.2328164-.3056505.1980022-.4950158l-.84-4.81c-.0513509-.3278577.0606513-.6601309.3-.89l3.51-3.39c.1338524-.1326699.1817348-.3293328.1238519-.5086854-.057883-.1793526-.2116965-.3109216-.3978519-.3403146l-4.866-.7c-.3239661-.0447741-.6047835-.2469626-.75-.54l-2.18-4.372c-.0835432-.1724952-.2583387-.2820551-.45-.2820551s-.3664568.1095599-.45.2820551l-2.18 4.37c-.1452165.2930374-.4260339.4952259-.75.54l-4.866.7c-.1870112.0288492-.3417149.1607974-.399708.3409148s-.0093389.3775416.125708.5100852z" fill="#000000" data-original="#000000" class=""></path></g></g></g></svg>