<svg xmlns="http://www.w3.org/2000/svg" version="1.1" xmlns:xlink="http://www.w3.org/1999/xlink" xmlns:svgjs="http://svgjs.com/svgjs" width="512" height="512" x="0" y="0" viewBox="0 0 512 512" style="enable-background:new 0 0 512 512" xml:space="preserve" class=""><g><g xmlns="http://www.w3.org/2000/svg" id="Question_2_"><path d="m392 272c-66.275 0-120 53.725-120 120 0 66.273 53.725 120 120 120s120-53.727 120-120c0-66.275-53.725-120-120-120zm-15 171.211-51.211-51.211 21.211-21.211 30 30 60-60 21.211 21.211z" fill="#000000" data-original="#000000" class=""></path><path d="m227 0c-107.52 0-195 89.48-195 197 0 47.241 16.567 91.729 46.934 126.841l-78.934 68.159h227c5.149 0 10.071-.948 15.134-1.329.736-82.079 67.617-148.671 149.866-148.671 8.198 0 16.095 1.148 23.939 2.421 3.871-15.416 6.061-31.311 6.061-47.421 0-107.52-87.48-197-195-197zm15 287h-30v-30h30zm7.515-96.035c-4.629 2.681-7.515 7.676-7.515 13.008v23.027h-30v-23.027c0-16.011 8.613-30.938 22.485-38.965 4.644-2.681 7.515-7.661 7.515-13.008 0-8.276-6.724-15-15-15s-15 6.724-15 15h-30c0-24.814 20.186-45 45-45s45 20.186 45 45c0 16.011-8.613 30.952-22.485 38.965z" fill="#000000" data-original="#000000" class=""></path></g></g></svg>