<svg xmlns="http://www.w3.org/2000/svg" version="1.1" xmlns:xlink="http://www.w3.org/1999/xlink" xmlns:svgjs="http://svgjs.com/svgjs" width="512" height="512" x="0" y="0" viewBox="0 0 512 512" style="enable-background:new 0 0 512 512" xml:space="preserve" class=""><g>
    <g xmlns="http://www.w3.org/2000/svg">
        <path d="m256 336 7.333 15-7.333 15h-128.33c-8.29 0-15-6.72-15-15s6.71-15 15-15z" fill="#fe405c" data-original="#fe405c"></path><path d="m399.33 351c0 8.28-6.71 15-15 15h-128.33v-30h128.33c8.29 0 15 6.72 15 15z" fill="#c40048" data-original="#c40048" class=""></path><path d="m127.665 49h-65.997c-8.284 0-15 6.716-15 15v433c0 8.284 6.716 15 15 15h65.997c8.284 0 15-6.716 15-15v-433c0-8.284-6.716-15-15-15z" fill="#09607d" data-original="#09607d">

    </path><path d="m450.332 49h-65.997c-8.284 0-15 6.716-15 15v433c0 8.284 6.716 15 15 15h65.997c8.284 0 15-6.716 15-15v-433c0-8.284-6.716-15-15-15z" fill="#07485e" data-original="#07485e"></path><circle cx="93" cy="57" fill="#ff6379" r="57" data-original="#ff6379"></circle><circle cx="417.333" cy="57" fill="#fe405c" r="57" data-original="#fe405c">

    </circle><g fill="#07485e">
        <path d="m164.333 416h-139.333c-13.785 0-25 11.215-25 25v46c0 13.785 11.215 25 25 25h139.333c13.785 0 25-11.215 25-25v-46c0-13.785-11.215-25-25-25z" fill="#07485e" data-original="#07485e"></path><path d="m487 416h-139.333c-13.785 0-25 11.215-25 25v46c0 13.785 11.215 25 25 25h139.333c13.785 0 25-11.215 25-25v-46c0-13.785-11.215-25-25-25z" fill="#07485e" data-original="#07485e"></path>
    </g><path d="m226.54 144.79h29.46l18.5 70.71-18.5 80.71h-62.26l-14.07-9.67-1.39.44-29.47 9.23h-91.06l-6.08-14.33c-6.24 0-28.76 12.69-33.84 9.82-10.64-6.01-17.83-17.43-17.83-30.49v-81.42c0-19.3 15.7-35 35-35h146.61l12.06 8.42z" fill="#fe405c" data-original="#fe405c"></path><path d="m512 179.79v81.42c0 19.3-15.7 35-35 35h-147.26l-15.41-10.33-29.51 10.33h-28.82v-151.42h61.61l16.11 9.75 28.82-9.75h91.07l10.72 11.75c6.07 0 24.45-10.2 29.43-7.47 10.86 5.95 18.24 17.49 18.24 30.72z" fill="#c40048" data-original="#c40048" class=""></path><g><g>
        <path d="m226.54 144.79-168.79 151.42h-22.75c-6.24 0-12.09-1.64-17.17-4.51l163.78-146.91z" fill="#ffdd55" data-original="#ffdd55"></path></g></g><g><g><g><path d="m175.39 272.37 80.61-72.31 7.333 20.44-7.333 19.86-62.26 55.85h-44.93z" fill="#ffdd55" data-original="#ffdd55"></path></g></g></g><g><path d="m362.54 144.79-106.54 95.57v-40.3l61.61-55.27z" fill="#ff8759" data-original="#ff8759"></path></g><g><path d="m493.76 149.07-164.02 147.14h-44.92l168.79-151.42h23.39c6.07 0 11.78 1.55 16.76 4.28z" fill="#ff8759" data-original="#ff8759"></path></g></g></g></svg>