<svg xmlns="http://www.w3.org/2000/svg" version="1.1" xmlns:xlink="http://www.w3.org/1999/xlink" xmlns:svgjs="http://svgjs.com/svgjs" width="512" height="512" x="0" y="0" viewBox="0 0 340 340" style="enable-background:new 0 0 512 512" xml:space="preserve" class=""><g><path xmlns="http://www.w3.org/2000/svg" d="m187.423 220.768 1.673-5.4a9.335 9.335 0 0 1 8.917-6.575h3.965l2.712-13.171h13.171l3.537-37.947a19.107 19.107 0 0 1 6.674-12.8l46.414-39.319a10.721 10.721 0 0 1 15.336 1.524l40.378 50.985a9.779 9.779 0 0 1 -1.264 13.463l-104.676 90.654a9.413 9.413 0 0 1 -13.141-.782c-6.419-7.094-16.317-19.086-23.013-32.156a11.286 11.286 0 0 1 -.683-8.476z" fill="#8fc4ef" data-original="#8fc4ef" class=""></path><path xmlns="http://www.w3.org/2000/svg" d="m330.973 159.21-14.28 11.919a8.844 8.844 0 0 1 -7.5 1.78 27.881 27.881 0 0 0 -33.538 27.291c0 .291.005.582.014.871a8.662 8.662 0 0 1 -3.134 6.913l-5.629 4.7a8.62 8.62 0 0 1 -7.437 1.834 27.863 27.863 0 0 0 -34.1 27.163q0 .673.032 1.339a8.552 8.552 0 0 1 -3.139 6.93l-12.244 10.219c.377.424.748.838 1.1 1.232a9.413 9.413 0 0 0 13.141.782l104.68-90.654a9.771 9.771 0 0 0 2.034-12.319z" fill="#6998d1" data-original="#6998d1" class=""></path><circle xmlns="http://www.w3.org/2000/svg" cx="303.526" cy="200.201" fill="#4f4c5b" r="20.74" data-original="#4f4c5b"></circle><circle xmlns="http://www.w3.org/2000/svg" cx="253.236" cy="241.68" fill="#4f4c5b" r="20.74" data-original="#4f4c5b"></circle><circle xmlns="http://www.w3.org/2000/svg" cx="253.236" cy="241.68" fill="#e2e2e2" r="7.74" data-original="#e2e2e2" class=""></circle><circle xmlns="http://www.w3.org/2000/svg" cx="303.526" cy="200.201" fill="#e2e2e2" r="7.74" data-original="#e2e2e2" class=""></circle><path xmlns="http://www.w3.org/2000/svg" d="m315.739 139.8-5.725 5.148a7.446 7.446 0 0 0 9.957 11.074l5.029-4.522z" fill="#e05f5f" data-original="#e05f5f"></path><path xmlns="http://www.w3.org/2000/svg" d="m190.6 233.815a138.253 138.253 0 0 0 7.932 12.135l12.976-10.511a5.578 5.578 0 0 0 .823-7.844l-2.058-2.54a5.577 5.577 0 0 0 -7.844-.823z" fill="#ffd392" data-original="#ffd392"></path><path xmlns="http://www.w3.org/2000/svg" d="m235.509 162.838-.871 13.388a6.069 6.069 0 0 0 9.838 5.14l7.665-6.109a8.172 8.172 0 0 0 1.49-11.232l-9.182-12.488-5.507 4.569a9.556 9.556 0 0 0 -3.433 6.732z" fill="#4f4c5b" data-original="#4f4c5b"></path><path xmlns="http://www.w3.org/2000/svg" d="m265.235 132.65 13.535-11.005 7.072 8.468a11.131 11.131 0 0 1 -1.188 15.489l-14 12.328-7.219-9.212a11.538 11.538 0 0 1 1.8-16.068z" fill="#4f4c5b" data-original="#4f4c5b"></path><path xmlns="http://www.w3.org/2000/svg" d="m108.516 138.352 24.354 16.748a19.588 19.588 0 0 1 8.462 15.1l1.592 30 5.322-.526a7.724 7.724 0 0 1 8.43 6.794l.437 3.76 7.115 1.2a8.2 8.2 0 0 1 5.76 12.128l-20.611 36.286a12.6 12.6 0 0 1 -17.119 4.76l-11.669-6.553a16.709 16.709 0 0 0 .407-2.081c2.474-17.593-15.794-30.494-31.9-23-.874.407-1.761.866-2.66 1.384a13.125 13.125 0 0 1 -14.191-.665l-58.766-41.966a13.836 13.836 0 0 1 -3.865-18.308l19.269-32.554 54.13 31.532z" fill="#ff8585" data-original="#ff8585"></path><path xmlns="http://www.w3.org/2000/svg" d="m21.577 153.2 6.3 4a8.275 8.275 0 0 0 11.223-2.266l4.021-5.78-14.241-8.295z" fill="#e05f5f" data-original="#e05f5f"></path><path xmlns="http://www.w3.org/2000/svg" d="m157.5 224.977a6.569 6.569 0 0 0 -6.764 11.259l8.853 5.627 6.746-11.878z" fill="#ffd392" data-original="#ffd392"></path><circle xmlns="http://www.w3.org/2000/svg" cx="116.224" cy="94.517" fill="#4f4c5b" r="20.74" data-original="#4f4c5b"></circle><circle xmlns="http://www.w3.org/2000/svg" cx="116.224" cy="94.517" fill="#e2e2e2" r="7.74" data-original="#e2e2e2" class=""></circle><g xmlns="http://www.w3.org/2000/svg" fill="#4f4c5b"><path d="m104.081 169.64 7.122-10.011 8.633 5.55a16.64 16.64 0 0 1 7.642 14v7.934a6.206 6.206 0 0 1 -9.741 5.1l-11.044-7.651a10.645 10.645 0 0 1 -2.612-14.922z" fill="#4f4c5b" data-original="#4f4c5b"></path><path d="m280.762 172.3a4.075 4.075 0 0 1 -2.694-7.134l4.052-3.567a4.075 4.075 0 1 1 5.385 6.117l-4.051 3.567a4.061 4.061 0 0 1 -2.692 1.017z" fill="#4f4c5b" data-original="#4f4c5b"></path><path d="m260.188 190.053a4.075 4.075 0 0 1 -2.542-7.262l4.109-3.275a4.075 4.075 0 0 1 5.08 6.373l-4.109 3.275a4.059 4.059 0 0 1 -2.538.889z" fill="#4f4c5b" data-original="#4f4c5b"></path></g><path xmlns="http://www.w3.org/2000/svg" d="m40.006 210.667 9.333 6.667 33.674-44.943-8.357-4.869z" fill="#e05f5f" data-original="#e05f5f"></path><path xmlns="http://www.w3.org/2000/svg" d="m93.8 200.211a4.051 4.051 0 0 1 -2.179-.635l-4.426-2.807a4.075 4.075 0 1 1 4.366-6.883l4.425 2.807a4.076 4.076 0 0 1 -2.186 7.518z" fill="#4f4c5b" data-original="#4f4c5b"></path><path xmlns="http://www.w3.org/2000/svg" d="m65.427 128.342a4.076 4.076 0 0 1 -3.815-2.643l-1.563-4.161a4.075 4.075 0 0 1 7.629-2.867l1.563 4.161a4.079 4.079 0 0 1 -3.814 5.51z" fill="#ffd392" data-original="#ffd392"></path><path xmlns="http://www.w3.org/2000/svg" d="m43.124 184.381a27.86 27.86 0 0 0 -22.969 12.108l45.331 32.378a27.856 27.856 0 0 0 -22.362-44.486z" fill="#e05f5f" data-original="#e05f5f"></path><path xmlns="http://www.w3.org/2000/svg" d="m211.506 121.638a4.078 4.078 0 0 1 -3.718-5.74l2.067-4.622a4.075 4.075 0 0 1 7.445 3.324l-2.067 4.622a4.075 4.075 0 0 1 -3.727 2.416z" fill="#ff8585" data-original="#ff8585"></path><path xmlns="http://www.w3.org/2000/svg" d="m195.733 193.361a4.077 4.077 0 0 1 -3.817-5.5l3.3-8.836-6.638.687a4.066 4.066 0 0 1 -4.254-2.673l-4.439-12.339-5.01 13.222a4.075 4.075 0 0 1 -3.811 2.632h-7.146l3.732 6.763a4.076 4.076 0 0 1 -7.137 3.938l-7.066-12.808a4.077 4.077 0 0 1 3.569-6.044h11.235l7.921-20.907a4.076 4.076 0 0 1 7.646.064l7.1 19.715 10-1.035a4.076 4.076 0 0 1 4.237 5.48l-5.6 14.993a4.079 4.079 0 0 1 -3.822 2.648z" fill="#ffd392" data-original="#ffd392"></path><circle xmlns="http://www.w3.org/2000/svg" cx="43.124" cy="212.252" fill="#4f4c5b" r="20.74" data-original="#4f4c5b"></circle><circle xmlns="http://www.w3.org/2000/svg" cx="43.124" cy="212.252" fill="#e2e2e2" r="7.74" data-original="#e2e2e2" class=""></circle></g></svg>