<svg xmlns="http://www.w3.org/2000/svg" version="1.1" xmlns:xlink="http://www.w3.org/1999/xlink" xmlns:svgjs="http://svgjs.com/svgjs" width="512" height="512" x="0" y="0" viewBox="0 0 511.999 511.999" style="enable-background:new 0 0 512 512" xml:space="preserve" class=""><g><g xmlns="http://www.w3.org/2000/svg"><path d="m383.999 310.831-8.799-5.172-34.769-19.243 9.787-55.114-5.924-83.96-6.955-5.2-81.34 29.173-7.253 11.568v293.6l7.253 13.233 128-45.908 6.911-8.532v-132.245z" fill="#75cef9" data-original="#75cef9" class=""></path><path d="m200.189 151.298h-8.189l-72.026 76.333v209.362l8.026 6.815 127.999 45.908v-318.401z" fill="#90d8f9" data-original="#90d8f9" class=""></path><path d="m124.782 218.655-60.782-67.357h-8.189l-48.737 17.48c-4.243 1.521-7.074 5.544-7.074 10.052v295.71c0 7.391 7.328 12.548 14.285 10.052l113.715-40.784v-216.177z" fill="#75cef9" data-original="#75cef9" class=""></path><path d="m61.287 457.814v-306.516h-5.476l-48.737 17.48c-4.243 1.521-7.074 5.544-7.074 10.052v295.71c0 7.391 7.328 12.548 14.285 10.052l50.966-18.279c-2.389-2.009-3.964-5.01-3.964-8.499z" fill="#6bbef6" data-original="#6bbef6"></path><path d="m128 22.283c-72.806 0-111.658 85.806-63.628 140.52l52.477 59.779c5.91 6.732 16.392 6.732 22.301 0l52.477-59.779c48.031-54.714 9.178-140.52-63.627-140.52zm0 131.856c-25.972 0-47.026-21.054-47.026-47.026 0-25.971 21.054-47.025 47.026-47.025s47.026 21.054 47.026 47.025c-.001 25.972-21.055 47.026-47.026 47.026z" fill="#f87c68" data-original="#f87c68" class=""></path><g><path d="m107.542 162.803c-6.993-7.966-12.132-16.594-15.605-25.518-6.84-8.167-10.963-18.686-10.963-30.172 0-11.551 4.172-22.123 11.082-30.309 9.413-24.573 29.929-44.81 57.528-51.847-6.788-1.731-13.999-2.674-21.585-2.674-72.805 0-111.658 85.806-63.627 140.52l52.477 59.779c5.91 6.732 16.392 6.732 22.301 0l10.434-11.886z" fill="#ec625e" data-original="#ec625e" class=""></path></g><path d="m383.999 125.407-46.66 16.735c1.924 12.51 1.364 28.245-11.928 33.036-22.149 7.984-24.215 32.45-5.411 35.026 18.804 2.575 28.59 10.559 22.409 24.982-6.181 14.422-27.3 54.612 9.272 72.376 10.105 4.908 21.193 5.114 32.319 3.27l4.467-7.418v-171.819z" fill="#95d6a4" data-original="#95d6a4" class=""></path><path d="m459.931 392.695c-28.501-25.411 18.2-43.611 7.555-81.864s-75.546-8.963-75.546-8.963l-7.941 8.963v132.977l89.85 32.225c40.016-26.547 14.584-57.927-13.918-83.338z" fill="#90d8f9" data-original="#90d8f9" class=""></path><path d="m497.714 484.593c6.957 2.495 14.285-2.661 14.285-10.052v-295.711c0-4.508-2.831-8.531-7.074-10.052l-120.926-43.371v185.425c29.14-4.829 58.54-23.738 71.213-9.2 17.513 20.088 6.181 36.056 0 41.207s-29.36 43.267 2.06 61.295c28.376 16.281 41.325 43.434 16.576 71.9z" fill="#b3e59f" data-original="#b3e59f" class=""></path><g><path d="m101.101 307.251c-6.982 0-13.519-2.563-18.551-7.163-5.031 4.6-11.568 7.163-18.55 7.163s-13.52-2.563-18.551-7.163c-5.032 4.6-11.569 7.163-18.55 7.163-4.267 0-7.726-3.459-7.726-7.726s3.459-7.726 7.726-7.726c3.824 0 7.347-1.753 9.665-4.808 2.129-2.806 5.367-4.416 8.884-4.417 3.517 0 6.756 1.611 8.887 4.418 2.317 3.054 5.84 4.807 9.664 4.807s7.347-1.753 9.665-4.808c2.13-2.807 5.369-4.417 8.886-4.417s6.755 1.611 8.886 4.418c2.318 3.054 5.84 4.807 9.664 4.807 4.267 0 7.726 3.459 7.726 7.726s-3.458 7.726-7.725 7.726z" fill="#b1e4f9" data-original="#b1e4f9" class=""></path></g><g><path d="m229.101 358.189c-6.983 0-13.52-2.562-18.551-7.162-5.031 4.6-11.568 7.162-18.551 7.162-6.982 0-13.519-2.562-18.55-7.162-5.031 4.599-11.568 7.162-18.551 7.162-4.267 0-7.726-3.459-7.726-7.726 0-4.268 3.459-7.726 7.726-7.726 3.824 0 7.348-1.751 9.665-4.806 2.13-2.808 5.369-4.418 8.886-4.418h.001c3.517.001 6.755 1.612 8.885 4.419 2.317 3.053 5.839 4.805 9.664 4.805 3.824 0 7.348-1.751 9.665-4.806 2.13-2.808 5.369-4.418 8.886-4.418s6.755 1.611 8.886 4.418c2.317 3.054 5.84 4.806 9.664 4.806 4.267 0 7.726 3.459 7.726 7.726.001 4.267-3.458 7.726-7.725 7.726z" fill="#b1e4f9" data-original="#b1e4f9" class=""></path></g><g><path d="m357.1 409.128c-6.982 0-13.519-2.563-18.55-7.162-5.031 4.599-11.568 7.162-18.551 7.162-6.982 0-13.52-2.563-18.551-7.163-5.032 4.6-11.569 7.163-18.55 7.163-4.267 0-7.726-3.459-7.726-7.726 0-4.268 3.459-7.726 7.726-7.726 3.824 0 7.347-1.753 9.665-4.808 2.129-2.806 5.367-4.416 8.884-4.417 3.517 0 6.756 1.611 8.887 4.418 2.317 3.054 5.84 4.807 9.664 4.807s7.347-1.753 9.665-4.807c2.13-2.808 5.369-4.418 8.886-4.418s6.755 1.611 8.886 4.418c2.318 3.054 5.841 4.807 9.664 4.807 4.267 0 7.726 3.459 7.726 7.726.002 4.267-3.458 7.726-7.725 7.726z" fill="#b1e4f9" data-original="#b1e4f9" class=""></path></g><g><path d="m101.101 267.059c-6.982 0-13.52-2.563-18.551-7.162-5.031 4.6-11.568 7.162-18.55 7.162-6.983 0-13.52-2.563-18.551-7.162-5.03 4.599-11.568 7.162-18.55 7.162-4.267 0-7.726-3.459-7.726-7.726 0-4.268 3.459-7.726 7.726-7.726 3.824 0 7.347-1.751 9.664-4.807 2.131-2.807 5.369-4.417 8.885-4.417 3.517 0 6.755 1.61 8.886 4.415 2.319 3.057 5.842 4.809 9.666 4.809s7.347-1.751 9.665-4.807c2.13-2.807 5.369-4.417 8.886-4.417s6.755 1.611 8.886 4.418c2.317 3.054 5.84 4.806 9.664 4.806 4.267 0 7.726 3.459 7.726 7.726s-3.459 7.726-7.726 7.726z" fill="#b1e4f9" data-original="#b1e4f9" class=""></path></g><g><path d="m229.101 317.998c-6.982 0-13.52-2.563-18.551-7.163-5.031 4.6-11.568 7.163-18.551 7.163-6.982 0-13.519-2.563-18.55-7.162-5.031 4.599-11.568 7.162-18.551 7.162-4.267 0-7.726-3.459-7.726-7.726s3.459-7.726 7.726-7.726c3.824 0 7.347-1.753 9.665-4.807 2.13-2.808 5.369-4.418 8.886-4.418h.001c3.517.001 6.755 1.612 8.885 4.419 2.317 3.053 5.84 4.806 9.664 4.806s7.347-1.753 9.665-4.807c2.13-2.808 5.369-4.418 8.886-4.418s6.755 1.611 8.886 4.418c2.317 3.054 5.84 4.807 9.664 4.807 4.267 0 7.726 3.459 7.726 7.726s-3.458 7.726-7.725 7.726z" fill="#b1e4f9" data-original="#b1e4f9" class=""></path></g><g><path d="m357.1 368.936c-6.982 0-13.519-2.563-18.55-7.162-5.031 4.599-11.568 7.162-18.551 7.162-6.982 0-13.52-2.563-18.551-7.163-5.032 4.6-11.569 7.163-18.55 7.163-4.267 0-7.726-3.459-7.726-7.726 0-4.268 3.459-7.726 7.726-7.726 3.824 0 7.347-1.753 9.665-4.808 2.129-2.806 5.367-4.416 8.884-4.417 3.517 0 6.756 1.611 8.887 4.418 2.317 3.054 5.84 4.807 9.664 4.807s7.347-1.753 9.665-4.807c2.13-2.808 5.369-4.418 8.886-4.418s6.755 1.611 8.886 4.418c2.318 3.054 5.841 4.807 9.664 4.807 4.267 0 7.726 3.459 7.726 7.726.002 4.268-3.458 7.726-7.725 7.726z" fill="#b1e4f9" data-original="#b1e4f9" class=""></path></g></g></g></svg>