<svg xmlns="http://www.w3.org/2000/svg" version="1.1" xmlns:xlink="http://www.w3.org/1999/xlink" xmlns:svgjs="http://svgjs.com/svgjs" width="512" height="512" x="0" y="0" viewBox="0 0 32 32" style="enable-background:new 0 0 512 512" xml:space="preserve" class=""><g><linearGradient xmlns="http://www.w3.org/2000/svg" id="linear-gradient" gradientUnits="userSpaceOnUse" x1="4.614" x2="27.386" y1="9.253" y2="32.025"><stop offset="0" stop-color="#fdc830"></stop><stop offset="1" stop-color="#f37335"></stop></linearGradient><path xmlns="http://www.w3.org/2000/svg" d="m29.95 28.68-3-9a1.013 1.013 0 0 0 -.95-.68h-3.12c1.72-2.31 3.12-4.85 3.12-7a10 10 0 1 0 -20 0c0 2.15 1.4 4.69 3.12 7h-3.12a1.013 1.013 0 0 0 -.95.68l-3 9a1 1 0 0 0 .14.9.983.983 0 0 0 .81.42h26a.983.983 0 0 0 .81-.42 1 1 0 0 0 .14-.9zm-14.95-20.68a1 1 0 0 1 2 0v6a1 1 0 0 1 -2 0zm1 8a1 1 0 1 1 -1 1 1 1 0 0 1 1-1zm-11.61 12 2.33-7h3.99a55.8 55.8 0 0 0 4.62 4.75 1.023 1.023 0 0 0 1.34 0 55.8 55.8 0 0 0 4.62-4.75h3.99l2.33 7z" fill="url(#linear-gradient)" data-original="url(#linear-gradient)" class=""></path></g></svg>