<svg xmlns="http://www.w3.org/2000/svg" version="1.1" xmlns:xlink="http://www.w3.org/1999/xlink" xmlns:svgjs="http://svgjs.com/svgjs" width="512" height="512" x="0" y="0" viewBox="0 0 128 128" style="enable-background:new 0 0 512 512" xml:space="preserve" class=""><g><path xmlns="http://www.w3.org/2000/svg" d="m59.37 16.17-5.26 16.26h19.78l-5.26-16.26a4.867 4.867 0 0 0 -9.26 0z" fill="#fb9000" data-original="#fb9000" class=""></path><path xmlns="http://www.w3.org/2000/svg" d="m54.11 32.43-6.38 19.74h32.54l-6.38-19.74z" fill="#e1f1ff" data-original="#e1f1ff" class=""></path><path xmlns="http://www.w3.org/2000/svg" d="m47.73 52.17-6.38 19.73h45.3l-6.38-19.73z" fill="#fb9000" data-original="#fb9000" class=""></path><path xmlns="http://www.w3.org/2000/svg" d="m41.35 71.9-6.38 19.74h58.06l-6.38-19.74z" fill="#e1f1ff" data-original="#e1f1ff" class=""></path><path xmlns="http://www.w3.org/2000/svg" d="m34.97 91.64-4.64 14.36h67.34l-4.64-14.36z" fill="#fb9000" data-original="#fb9000" class=""></path><path xmlns="http://www.w3.org/2000/svg" d="m24.627 106h78.745a3.243 3.243 0 0 1 3.243 3.243v2.714a3.243 3.243 0 0 1 -3.243 3.243h-78.745a3.242 3.242 0 0 1 -3.242-3.242v-2.714a3.242 3.242 0 0 1 3.242-3.244z" fill="#fdbe00" data-original="#fdbe00"></path></g></svg>