<svg xmlns="http://www.w3.org/2000/svg" version="1.1" xmlns:xlink="http://www.w3.org/1999/xlink" xmlns:svgjs="http://svgjs.com/svgjs" width="512" height="512" x="0" y="0" viewBox="0 0 64 64" style="enable-background:new 0 0 512 512" xml:space="preserve" class=""><g><path xmlns="http://www.w3.org/2000/svg" d="m44 2h-24l-8 60h40z" fill="#686868" data-original="#686868"></path><path xmlns="http://www.w3.org/2000/svg" d="m40 2h-16l-8 60h32z" fill="#cccccc" data-original="#cccccc"></path><path xmlns="http://www.w3.org/2000/svg" d="m30 30h4v6h-4z" fill="#f2f2f2" data-original="#f2f2f2"></path><path xmlns="http://www.w3.org/2000/svg" d="m30 30v5h1a2 2 0 0 0 2-2v-3z" fill="#ffffff" data-original="#ffffff" class=""></path><path xmlns="http://www.w3.org/2000/svg" d="m30 38h4v6h-4z" fill="#f2f2f2" data-original="#f2f2f2"></path><path xmlns="http://www.w3.org/2000/svg" d="m30 38v5h1a2 2 0 0 0 2-2v-3z" fill="#ffffff" data-original="#ffffff" class=""></path><path xmlns="http://www.w3.org/2000/svg" d="m30 48h4v6h-4z" fill="#f2f2f2" data-original="#f2f2f2"></path><path xmlns="http://www.w3.org/2000/svg" d="m30 48v5h1a2 2 0 0 0 2-2v-3z" fill="#ffffff" data-original="#ffffff" class=""></path><path xmlns="http://www.w3.org/2000/svg" d="m30 58h4v4h-4z" fill="#f2f2f2" data-original="#f2f2f2"></path><path xmlns="http://www.w3.org/2000/svg" d="m30 58v3h1a2 2 0 0 0 2-2v-1z" fill="#ffffff" data-original="#ffffff" class=""></path><path xmlns="http://www.w3.org/2000/svg" d="m30 10h4v6h-4z" fill="#f2f2f2" data-original="#f2f2f2"></path><path xmlns="http://www.w3.org/2000/svg" d="m30 10v5h1a2 2 0 0 0 2-2v-3z" fill="#ffffff" data-original="#ffffff" class=""></path><path xmlns="http://www.w3.org/2000/svg" d="m30 2h4v4h-4z" fill="#f2f2f2" data-original="#f2f2f2"></path><path xmlns="http://www.w3.org/2000/svg" d="m30 2v3h1a2 2 0 0 0 2-2v-1z" fill="#ffffff" data-original="#ffffff" class=""></path><path xmlns="http://www.w3.org/2000/svg" d="m2 34v6h4l1 6h4l1-6h40l1 6h4l1-6h4v-6z" fill="#939393" data-original="#939393" class=""></path><path xmlns="http://www.w3.org/2000/svg" d="m30 20h4v6h-4z" fill="#f2f2f2" data-original="#f2f2f2"></path><circle xmlns="http://www.w3.org/2000/svg" cx="49" cy="17" fill="#559b38" r="12" data-original="#559b38" class=""></circle><path xmlns="http://www.w3.org/2000/svg" d="m49 5a11.986 11.986 0 0 0 -9.733 19h13.733a4 4 0 0 0 4-4v-11.926a11.94 11.94 0 0 0 -8-3.074z" fill="#6bc148" data-original="#6bc148" class=""></path><rect xmlns="http://www.w3.org/2000/svg" fill="#7cdf54" height="11" rx="2" width="12" x="42" y="10" data-original="#7cdf54" class=""></rect><g xmlns="http://www.w3.org/2000/svg" fill="#fff"><path d="m49 15a3 3 0 0 0 -6 0h2a1 1 0 0 1 2 0 1.862 1.862 0 0 1 -.406 1.156l-3.375 4.219a1 1 0 0 0 .781 1.625h5v-2h-2.92l2.076-2.595a3.864 3.864 0 0 0 .844-2.405z" fill="#ffffff" data-original="#ffffff" class=""></path><path d="m56 18v-5a1 1 0 0 0 -1.832-.555l-4 6a1 1 0 0 0 .832 1.555h3v2h2v-2h2v-2zm-2 0h-1.132l1.132-1.7z" fill="#ffffff" data-original="#ffffff" class=""></path><path d="m30 20v5h1a2 2 0 0 0 2-2v-3z" fill="#ffffff" data-original="#ffffff" class=""></path></g></g></svg>