<svg xmlns="http://www.w3.org/2000/svg" version="1.1" xmlns:xlink="http://www.w3.org/1999/xlink" xmlns:svgjs="http://svgjs.com/svgjs" width="512" height="512" x="0" y="0" viewBox="0 0 64 64" style="enable-background:new 0 0 512 512" xml:space="preserve" class=""><g><g xmlns="http://www.w3.org/2000/svg" id="Icons"><g><path d="m59.786 52.982c.788 1.333-.173 3.018-1.722 3.018h-52.124c-1.55 0-2.51-1.68-1.73-3.02l26.07-44.08c.77-1.31 2.67-1.31 3.44 0z" fill="#fab400" data-original="#fab400" class=""></path></g><g><g><circle cx="30.5" cy="30.5" fill="#dc9600" r="2.5" data-original="#dc9600" class=""></circle></g><g><g><path d="m46.46 51h-13.07c-.69 0-1.17-.67-.95-1.32l1.33-4c.14-.4.52-.68.95-.68h2.66c.38 0 .73-.21.9-.55l.22-.45-5.2-2.31c.201-.267.34-.565.38-.92l.01-.01 5.26 2.34.77-1.55c.17-.34.52-.55.9-.55h1.11c.35 0 .68.19.86.49l4.73 8c.39.67-.09 1.51-.86 1.51z" fill="#dc9600" data-original="#dc9600" class=""></path></g><g><path d="m30.332 40.971.967.432c.504.225 1.096 0 1.322-.505.227-.506-.001-1.1-.508-1.325l-1.381-.613c.31-1.54.54-2.7.71-3.55.25-1.23-.69-2.38-1.95-2.38h-4.57c-1.48 0-2.41.88-2.66 2l-.6 2.68c-.15.68.37 1.32 1.06 1.32.51 0 .95-.35 1.06-.85l.13-.6.91.4-2.63 11.85c-.14.62.33 1.2.96 1.2.713 0 1.055-.298 1.16-.77l1.36-6.13c.15-.64.72-1.1 1.38-1.1.53 0 1.02.3 1.26.78l.32.64c.187.373.25.796.182 1.208l-.702 4.222c-.1.6.36 1.15.97 1.15.49 0 .9-.35.98-.82l.75-4.55c.068-.412.005-.835-.18-1.21l-.4-.81c-.204-.412-.261-.881-.17-1.331.096-.47.183-.913.27-1.338zm-5.28-3.99-.91-.4.34-1.55h1z" fill="#dc9600" data-original="#dc9600" class=""></path></g></g></g><g><g><path d="m54.55 53.5h-45.1c-1.165 0-1.887-1.256-1.302-2.262l22.562-38.153c.583-.985 1.996-.988 2.581.001l22.55 38.15c.588 1.01-.138 2.264-1.291 2.264zm-22.979-39.906-22.561 38.151c-.193.332.045.755.44.755h45.1c.385 0 .624-.422.428-.759l-22.548-38.146c-.198-.334-.663-.334-.859-.001z" fill="#00325a" data-original="#00325a" class=""></path></g></g><g><g><circle cx="30.5" cy="29.5" fill="#00325a" r="2.5" data-original="#00325a" class=""></circle></g><g><g><path d="m46.46 50h-13.07c-.69 0-1.17-.67-.95-1.32l1.33-4c.14-.4.52-.68.95-.68h2.66c.38 0 .73-.21.9-.55l.22-.45-5.2-2.31c.201-.267.34-.565.38-.92l.01-.01 5.26 2.34.77-1.55c.17-.34.52-.55.9-.55h1.11c.35 0 .68.19.86.49l4.73 8c.39.67-.09 1.51-.86 1.51z" fill="#00325a" data-original="#00325a" class=""></path></g><g><path d="m30.332 39.971.967.432c.504.225 1.096 0 1.322-.505.227-.506-.001-1.1-.508-1.325l-1.381-.613c.31-1.54.54-2.7.71-3.55.25-1.23-.69-2.38-1.95-2.38h-4.57c-1.48 0-2.41.88-2.66 2l-.6 2.68c-.15.68.37 1.32 1.06 1.32.51 0 .95-.35 1.06-.85l.13-.6.91.4-2.63 11.85c-.14.62.33 1.2.96 1.2.713 0 1.055-.298 1.16-.77l1.36-6.13c.15-.64.72-1.1 1.38-1.1.53 0 1.02.3 1.26.78l.32.64c.187.373.25.796.182 1.208l-.702 4.222c-.1.6.36 1.15.97 1.15.49 0 .9-.35.98-.82l.75-4.55c.068-.412.005-.835-.18-1.21l-.4-.81c-.204-.412-.261-.881-.17-1.331.096-.47.183-.913.27-1.338zm-5.28-3.99-.91-.4.34-1.55h1z" fill="#00325a" data-original="#00325a" class=""></path></g></g></g></g></g></svg>