<svg xmlns="http://www.w3.org/2000/svg" version="1.1" xmlns:xlink="http://www.w3.org/1999/xlink" xmlns:svgjs="http://svgjs.com/svgjs" width="512" height="512" x="0" y="0" viewBox="0 0 464 464" style="enable-background:new 0 0 512 512" xml:space="preserve" class=""><g>
<path xmlns="http://www.w3.org/2000/svg" style="" d="M352,216h112v200H352V216z" fill="#6cbbc7" data-original="#6cbbc7" class=""></path>
<path xmlns="http://www.w3.org/2000/svg" style="" d="M424,216h16v112h-16V216z" fill="#36717a" data-original="#36717a" class=""></path>
<path xmlns="http://www.w3.org/2000/svg" style="" d="M0,216h112v200H0V216z" fill="#6cbbc7" data-original="#6cbbc7" class=""></path>
<g xmlns="http://www.w3.org/2000/svg">
	<path style="" d="M0,320h112v96H0V320z" fill="#e6e6e6" data-original="#e6e6e6"></path>
	<path style="" d="M352,320h112v96H352V320z" fill="#e6e6e6" data-original="#e6e6e6"></path>
</g>
<path xmlns="http://www.w3.org/2000/svg" style="" d="M72,216h16v104H72V216z" fill="#36717a" data-original="#36717a" class=""></path>
<g xmlns="http://www.w3.org/2000/svg">
	<path style="" d="M40,104h32v112H40V104z" fill="#e6e6e6" data-original="#e6e6e6"></path>
	<path style="" d="M392,104h32v112h-32V104z" fill="#e6e6e6" data-original="#e6e6e6"></path>
</g>
<path xmlns="http://www.w3.org/2000/svg" style="" d="M144,328v56h176v-56l-24-56H168L144,328z" fill="#6cbbc7" data-original="#6cbbc7" class=""></path>
<path xmlns="http://www.w3.org/2000/svg" style="" d="M144,328h176v56H144V328z" fill="#fdb62f" data-original="#fdb62f"></path>
<g xmlns="http://www.w3.org/2000/svg">
	<path style="" d="M160,384h32v32h-32V384z" fill="#b3b3b3" data-original="#b3b3b3"></path>
	<path style="" d="M264,384h32v32h-32V384z" fill="#b3b3b3" data-original="#b3b3b3"></path>
</g>
<g xmlns="http://www.w3.org/2000/svg">
	<path style="" d="M24,320l32,32l32-32H24z" fill="#ff1d25" data-original="#ff1d25"></path>
	<path style="" d="M0,336l56,56l56-56v40l-40,40H40L0,376V336z" fill="#ff1d25" data-original="#ff1d25"></path>
	<path style="" d="M376,320l32,32l32-32H376z" fill="#ff1d25" data-original="#ff1d25"></path>
	<path style="" d="M352,336l56,56l56-56v40l-40,40h-32l-40-40V336z" fill="#ff1d25" data-original="#ff1d25"></path>
</g>
<path xmlns="http://www.w3.org/2000/svg" style="" d="M0,80h464v32H0V80z" fill="#b3b3b3" data-original="#b3b3b3"></path>
<path xmlns="http://www.w3.org/2000/svg" style="" d="M160,48h144v64H160V48z" fill="#fdb62f" data-original="#fdb62f"></path>
<g xmlns="http://www.w3.org/2000/svg">
</g>
<g xmlns="http://www.w3.org/2000/svg">
</g>
<g xmlns="http://www.w3.org/2000/svg">
</g>
<g xmlns="http://www.w3.org/2000/svg">
</g>
<g xmlns="http://www.w3.org/2000/svg">
</g>
<g xmlns="http://www.w3.org/2000/svg">
</g>
<g xmlns="http://www.w3.org/2000/svg">
</g>
<g xmlns="http://www.w3.org/2000/svg">
</g>
<g xmlns="http://www.w3.org/2000/svg">
</g>
<g xmlns="http://www.w3.org/2000/svg">
</g>
<g xmlns="http://www.w3.org/2000/svg">
</g>
<g xmlns="http://www.w3.org/2000/svg">
</g>
<g xmlns="http://www.w3.org/2000/svg">
</g>
<g xmlns="http://www.w3.org/2000/svg">
</g>
<g xmlns="http://www.w3.org/2000/svg">
</g>
</g></svg>