<svg xmlns="http://www.w3.org/2000/svg" version="1.1" xmlns:xlink="http://www.w3.org/1999/xlink" xmlns:svgjs="http://svgjs.com/svgjs" width="512" height="512" x="0" y="0" viewBox="0 0 48 48" style="enable-background:new 0 0 512 512" xml:space="preserve" class=""><g><path xmlns="http://www.w3.org/2000/svg" d="m22 22h-5v4c0 .552.448 1 1 1h3c.552 0 1-.448 1-1z" fill="#2d3e4f" data-original="#2d3e4f"></path><path xmlns="http://www.w3.org/2000/svg" d="m43 22h-5v4c0 .552.448 1 1 1h3c.552 0 1-.448 1-1z" fill="#2d3e4f" data-original="#2d3e4f"></path><path xmlns="http://www.w3.org/2000/svg" d="m42.88 15.669-3.401-9.352c-.288-.791-1.039-1.317-1.88-1.317h-15.198c-.841 0-1.592.526-1.88 1.317l-3.401 9.352c-.08.219-.12.45-.12.683v6.648c0 1.105.895 2 2 2h22c1.105 0 2-.895 2-2v-6.648c0-.233-.041-.464-.12-.683z" fill="#03a9f4" data-original="#03a9f4"></path><path xmlns="http://www.w3.org/2000/svg" d="m39.743 12.664-1.786-5c-.142-.398-.519-.664-.941-.664h-14.032c-.423 0-.8.266-.942.664l-1.786 5c-.232.651.251 1.336.943 1.336h17.603c.691 0 1.174-.685.941-1.336z" fill="#37474f" data-original="#37474f" class=""></path><path xmlns="http://www.w3.org/2000/svg" d="m40 22h-20c-.552 0-1-.448-1-1v-4c0-.552.448-1 1-1h20c.552 0 1 .448 1 1v4c0 .552-.448 1-1 1z" fill="#1e88e5" data-original="#1e88e5"></path><circle xmlns="http://www.w3.org/2000/svg" cx="38" cy="19" fill="#e3f2fd" r="2" data-original="#e3f2fd"></circle><circle xmlns="http://www.w3.org/2000/svg" cx="22" cy="19" fill="#e3f2fd" r="2" data-original="#e3f2fd"></circle><path xmlns="http://www.w3.org/2000/svg" d="m10 30h-5v4c0 .552.448 1 1 1h3c.552 0 1-.448 1-1z" fill="#2d3e4f" data-original="#2d3e4f"></path><path xmlns="http://www.w3.org/2000/svg" d="m31 30h-5v4c0 .552.448 1 1 1h3c.552 0 1-.448 1-1z" fill="#2d3e4f" data-original="#2d3e4f"></path><path xmlns="http://www.w3.org/2000/svg" d="m30.88 23.669-3.401-9.352c-.288-.791-1.039-1.317-1.88-1.317h-15.198c-.841 0-1.592.526-1.88 1.317l-3.401 9.352c-.079.219-.12.45-.12.683v6.648c0 1.105.895 2 2 2h22c1.105 0 2-.895 2-2v-6.648c0-.233-.041-.464-.12-.683z" fill="#26a69a" data-original="#26a69a"></path><path xmlns="http://www.w3.org/2000/svg" d="m27.743 20.664-1.786-5c-.142-.398-.519-.664-.941-.664h-14.032c-.423 0-.8.266-.942.664l-1.786 5c-.232.651.251 1.336.943 1.336h17.603c.691 0 1.174-.685.941-1.336z" fill="#37474f" data-original="#37474f" class=""></path><path xmlns="http://www.w3.org/2000/svg" d="m28 30h-20c-.552 0-1-.448-1-1v-4c0-.552.448-1 1-1h20c.552 0 1 .448 1 1v4c0 .552-.448 1-1 1z" fill="#00897b" data-original="#00897b"></path><circle xmlns="http://www.w3.org/2000/svg" cx="26" cy="27" fill="#e3f2fd" r="2" data-original="#e3f2fd"></circle><circle xmlns="http://www.w3.org/2000/svg" cx="10" cy="27" fill="#e3f2fd" r="2" data-original="#e3f2fd"></circle><path xmlns="http://www.w3.org/2000/svg" d="m18 38h-5v4c0 .552.448 1 1 1h3c.552 0 1-.448 1-1z" fill="#2d3e4f" data-original="#2d3e4f"></path><path xmlns="http://www.w3.org/2000/svg" d="m39 38h-5v4c0 .552.448 1 1 1h3c.552 0 1-.448 1-1z" fill="#2d3e4f" data-original="#2d3e4f"></path><path xmlns="http://www.w3.org/2000/svg" d="m38.88 31.669-3.401-9.352c-.288-.791-1.039-1.317-1.88-1.317h-15.198c-.841 0-1.592.526-1.88 1.317l-3.401 9.352c-.08.219-.12.45-.12.683v6.648c0 1.105.895 2 2 2h22c1.105 0 2-.895 2-2v-6.648c0-.233-.041-.464-.12-.683z" fill="#ff9800" data-original="#ff9800" class=""></path><path xmlns="http://www.w3.org/2000/svg" d="m35.743 28.664-1.786-5c-.142-.398-.519-.664-.941-.664h-14.032c-.423 0-.8.266-.942.664l-1.786 5c-.232.651.251 1.336.943 1.336h17.603c.691 0 1.174-.685.941-1.336z" fill="#37474f" data-original="#37474f" class=""></path><path xmlns="http://www.w3.org/2000/svg" d="m36 38h-20c-.552 0-1-.448-1-1v-4c0-.552.448-1 1-1h20c.552 0 1 .448 1 1v4c0 .552-.448 1-1 1z" fill="#ef6c00" data-original="#ef6c00"></path><g xmlns="http://www.w3.org/2000/svg" fill="#e3f2fd"><circle cx="34" cy="35" r="2" fill="#e3f2fd" data-original="#e3f2fd"></circle><circle cx="18" cy="35" r="2" fill="#e3f2fd" data-original="#e3f2fd"></circle></g></g></svg>