<svg xmlns="http://www.w3.org/2000/svg" version="1.1" xmlns:xlink="http://www.w3.org/1999/xlink" xmlns:svgjs="http://svgjs.com/svgjs" width="512" height="512" x="0" y="0" viewBox="0 0 512 512" style="enable-background:new 0 0 512 512" xml:space="preserve" class=""><g><g xmlns="http://www.w3.org/2000/svg"><g><path d="m241 421h30v60h-30z" fill="#fabe2c" data-original="#fabe2c" class=""></path></g><path d="m256 421h15v60h-15z" fill="#ff9100" data-original="#ff9100"></path><g><path d="m422 271v165h-332v-105h30v75h272v-135z" fill="#fabe2c" data-original="#fabe2c" class=""></path></g><path d="m422 271v165h-166v-30h136v-135z" fill="#ff9100" data-original="#ff9100"></path><g><path d="m332 16h150v90h-150z" fill="#ff415b" data-original="#ff415b"></path><path d="m407 16h75v90h-75z" fill="#e50058" data-original="#e50058"></path><path d="m362 46h90v60h-90z" fill="#405580" data-original="#405580" class=""></path><path d="m407 46h45v60h-45z" fill="#283d66" data-original="#283d66"></path><g><path d="m332 151h30v45h-30z" fill="#405580" data-original="#405580" class=""></path></g><g><path d="m452 151h30v45h-30z" fill="#283d66" data-original="#283d66"></path></g><g><path d="m302 76v90h210v-90z" fill="#ff7c48" data-original="#ff7c48"></path></g><path d="m407 76h105v90h-105z" fill="#ff415b" data-original="#ff415b"></path><path d="m332 106h30v30h-30z" fill="#fed843" data-original="#fed843" class=""></path><path d="m452 106h30v30h-30z" fill="#fabe2c" data-original="#fabe2c" class=""></path></g><g><path d="m165 346h-120c-24.853 0-45-20.147-45-45v-15h210v15c0 24.853-20.147 45-45 45z" fill="#fed843" data-original="#fed843" class=""></path></g><g><path d="m467 286h-120c-24.853 0-45-20.147-45-45v-15h210v15c0 24.853-20.147 45-45 45z" fill="#fabe2c" data-original="#fabe2c" class=""></path></g><g><path d="m180 466h152v30h-152z" fill="#405580" data-original="#405580" class=""></path></g><path d="m256 466h76v30h-76z" fill="#283d66" data-original="#283d66"></path><path d="m105 46c-24.814 0-45 20.186-45 45s20.186 45 45 45 45-20.186 45-45-20.186-45-45-45zm0 60c-8.276 0-15-6.724-15-15s6.724-15 15-15 15 6.724 15 15-6.724 15-15 15z" fill="#405580" data-original="#405580" class=""></path><path d="m150 91c0-24.814-20.186-45-45-45v30c8.276 0 15 6.724 15 15s-6.724 15-15 15v30c24.814 0 45-20.186 45-45z" fill="#283d66" data-original="#283d66"></path><path d="m176.719 106h-71.719-71.719l-33.281 150h105 105z" fill="#5c7099" data-original="#5c7099"></path><path d="m176.719 106h-71.719v150h105z" fill="#405580" data-original="#405580" class=""></path></g></g></svg>